<?xml version="1.0" encoding="UTF-8" standalone="no"?>
<!-- Created with Inkscape (http://www.inkscape.org/) -->

<svg
   width="66.707039mm"
   height="53.771484mm"
   viewBox="0 0 66.70704 53.771482"
   version="1.1"
   id="svg1"
   inkscape:version="1.3.2 (091e20e, 2023-11-25, custom)"
   sodipodi:docname="logo.svg"
   xml:space="preserve"
   inkscape:export-filename="xibalbyte.png"
   inkscape:export-xdpi="100"
   inkscape:export-ydpi="100"
   xmlns:inkscape="http://www.inkscape.org/namespaces/inkscape"
   xmlns:sodipodi="http://sodipodi.sourceforge.net/DTD/sodipodi-0.dtd"
   xmlns="http://www.w3.org/2000/svg"
   xmlns:svg="http://www.w3.org/2000/svg"><sodipodi:namedview
     id="namedview1"
     pagecolor="#ffffff"
     bordercolor="#000000"
     borderopacity="0.25"
     inkscape:showpageshadow="2"
     inkscape:pageopacity="0.0"
     inkscape:pagecheckerboard="0"
     inkscape:deskcolor="#d1d1d1"
     inkscape:document-units="mm"
     showgrid="false"
     inkscape:zoom="0.87014704"
     inkscape:cx="188.47389"
     inkscape:cy="141.93004"
     inkscape:window-width="1366"
     inkscape:window-height="745"
     inkscape:window-x="-8"
     inkscape:window-y="-8"
     inkscape:window-maximized="1"
     inkscape:current-layer="layer1"
     showguides="true"><inkscape:grid
       id="grid1"
       units="cm"
       originx="-126.64649"
       originy="-81.585938"
       spacingx="10"
       spacingy="10"
       empcolor="#0099e5"
       empopacity="0.30196078"
       color="#0099e5"
       opacity="0.14901961"
       empspacing="5"
       dotted="false"
       gridanglex="30"
       gridanglez="30"
       visible="false" /></sodipodi:namedview><defs
     id="defs1"><rect
       x="137.06905"
       y="377.95276"
       width="316.47427"
       height="151.18111"
       id="rect42" /><rect
       x="137.06905"
       y="377.95276"
       width="316.47427"
       height="151.18111"
       id="rect2" /><rect
       x="137.06905"
       y="377.95276"
       width="316.47427"
       height="151.18111"
       id="rect3" /><rect
       x="137.06905"
       y="377.95276"
       width="316.47427"
       height="151.18111"
       id="rect8" /><rect
       x="137.06905"
       y="377.95276"
       width="316.47427"
       height="151.18111"
       id="rect1" /><rect
       x="137.06905"
       y="377.95276"
       width="316.47427"
       height="151.18111"
       id="rect4" /><rect
       x="137.06905"
       y="377.95276"
       width="316.47427"
       height="151.18111"
       id="rect9" /><rect
       x="137.06905"
       y="377.95276"
       width="316.47427"
       height="151.18111"
       id="rect70" /><rect
       x="137.06905"
       y="377.95276"
       width="316.47427"
       height="151.18111"
       id="rect10" /><rect
       x="137.06905"
       y="377.95276"
       width="316.47427"
       height="151.18111"
       id="rect11" /><rect
       x="137.06905"
       y="377.95276"
       width="316.47427"
       height="151.18111"
       id="rect12" /></defs><g
     inkscape:label="Layer 1"
     inkscape:groupmode="layer"
     id="layer1"
     transform="translate(-126.64648,-81.585937)"><path
       style="color:#000000;fill:#000000;-inkscape-stroke:none;paint-order:fill markers stroke"
       d="m 160.02734,81.585937 -4.90625,14.720704 -28.47461,1.874996 14.02735,37.175783 19.35351,-0.42187 19.29883,0.42187 14.02735,-37.175783 -28.41797,-1.871094 z"
       id="path1"
       sodipodi:nodetypes="ccccccccc" /><path
       id="path58"
       style="fill:#cc0000;fill-opacity:1;stroke:none;stroke-width:3.99973;stroke-linecap:butt;stroke-linejoin:miter;stroke-dasharray:none;paint-order:fill markers stroke"
       d="m 160.02744,87.91143 -9.99939,29.99817 9.99939,-4.9997 9.99939,4.9997 z m 0,5.353161 7.00991,20.810619 -7.00991,-3.70469 z m -6.04924,5.122168 -24.50755,1.613341 11.4732,30.40641 2.28565,-4.50463 c -1.42931,-3.77173 -1.56894,-7.97442 -0.28784,-11.92382 a 4,4 0 0 1 -3.94291,-3.99563 4,4 0 0 1 4.00027,-4.00027 4,4 0 0 1 3.37499,1.85519 c 1.65384,-1.9372 3.69382,-3.49824 5.98155,-4.58164 z m 12.04319,0 1.62264,4.868951 c 2.25357,1.06723 4.26864,2.59668 5.9092,4.49379 a 4,4 0 0 1 3.31246,-1.76734 4,4 0 0 1 3.99976,4.00027 4,4 0 0 1 -3.81011,3.98632 c 1.28435,3.95212 1.14518,8.15844 -0.28525,11.93313 l 2.28565,4.50463 11.4732,-30.40641 z m -5.99395,17.022731 -9.99939,5.14543 -4.99969,9.85366 14.99908,2.5001 14.99909,-2.5001 -4.9997,-9.85366 z m 0,2.58382 9.42217,4.06074 3.17603,7.09621 -12.5982,1.49861 z" /></g></svg>
